<svg xmlns="http://www.w3.org/2000/svg" xmlns:xlink="http://www.w3.org/1999/xlink" width="500" zoomAndPan="magnify" viewBox="0 0 375 374.999991" height="500" preserveAspectRatio="xMidYMid meet" version="1.0"><defs><g/><clipPath id="24ad452ba9"><path d="M 110.753906 115.449219 L 214.253906 115.449219 L 214.253906 173.199219 L 110.753906 173.199219 Z M 110.753906 115.449219 " clip-rule="nonzero"/></clipPath><clipPath id="6e9eca90eb"><path d="M 72.644531 131.140625 L 302.691406 131.140625 L 302.691406 195 L 72.644531 195 Z M 72.644531 131.140625 " clip-rule="nonzero"/></clipPath><clipPath id="0d9a0ad0a5"><path d="M 72.644531 161.171875 L 302.691406 161.171875 L 302.691406 199.640625 L 72.644531 199.640625 Z M 72.644531 161.171875 " clip-rule="nonzero"/></clipPath><clipPath id="e76f499154"><path d="M 72.644531 157.152344 L 164.261719 157.152344 L 164.261719 196.195312 L 72.644531 196.195312 Z M 72.644531 157.152344 " clip-rule="nonzero"/></clipPath><clipPath id="92d0ead14a"><path d="M 72.644531 172.65625 L 120.609375 172.65625 L 120.609375 193.324219 L 72.644531 193.324219 Z M 72.644531 172.65625 " clip-rule="nonzero"/></clipPath><clipPath id="d1a2bdb887"><path d="M 240 184 L 284 184 L 284 215.140625 L 240 215.140625 Z M 240 184 " clip-rule="nonzero"/></clipPath><clipPath id="098556205d"><path d="M 72.644531 162 L 302.691406 162 L 302.691406 199.640625 L 72.644531 199.640625 Z M 72.644531 162 " clip-rule="nonzero"/></clipPath></defs><g clip-path="url(#24ad452ba9)"><path fill="#d8b4fe" d="M 214.253906 167.199219 C 214.253906 168.894531 214.167969 170.585938 214.003906 172.273438 C 213.835938 173.960938 213.589844 175.632812 213.257812 177.296875 C 212.929688 178.957031 212.515625 180.601562 212.023438 182.222656 C 211.53125 183.84375 210.960938 185.4375 210.3125 187.003906 C 209.664062 188.570312 208.941406 190.101562 208.140625 191.59375 C 207.34375 193.089844 206.472656 194.542969 205.53125 195.949219 C 204.589844 197.359375 203.582031 198.71875 202.507812 200.03125 C 201.429688 201.339844 200.292969 202.59375 199.09375 203.792969 C 197.898438 204.992188 196.644531 206.128906 195.332031 207.203125 C 194.023438 208.277344 192.664062 209.285156 191.253906 210.230469 C 189.84375 211.171875 188.390625 212.039062 186.898438 212.839844 C 185.402344 213.636719 183.871094 214.363281 182.308594 215.011719 C 180.742188 215.660156 179.148438 216.230469 177.523438 216.722656 C 175.902344 217.214844 174.261719 217.625 172.597656 217.957031 C 170.9375 218.285156 169.261719 218.535156 167.574219 218.699219 C 165.886719 218.867188 164.199219 218.949219 162.503906 218.949219 C 160.808594 218.949219 159.117188 218.867188 157.429688 218.699219 C 155.742188 218.535156 154.070312 218.285156 152.40625 217.957031 C 150.746094 217.625 149.101562 217.214844 147.480469 216.722656 C 145.859375 216.230469 144.265625 215.660156 142.699219 215.011719 C 141.132812 214.363281 139.601562 213.636719 138.109375 212.839844 C 136.613281 212.039062 135.160156 211.171875 133.753906 210.230469 C 132.34375 209.285156 130.984375 208.277344 129.671875 207.203125 C 128.363281 206.128906 127.109375 204.992188 125.910156 203.792969 C 124.710938 202.59375 123.574219 201.339844 122.5 200.03125 C 121.425781 198.71875 120.414062 197.359375 119.472656 195.949219 C 118.53125 194.542969 117.664062 193.089844 116.863281 191.59375 C 116.0625 190.101562 115.339844 188.570312 114.691406 187.003906 C 114.042969 185.4375 113.472656 183.84375 112.980469 182.222656 C 112.488281 180.601562 112.078125 178.957031 111.746094 177.296875 C 111.417969 175.632812 111.167969 173.960938 111.003906 172.273438 C 110.835938 170.585938 110.753906 168.894531 110.753906 167.199219 C 110.753906 165.503906 110.835938 163.8125 111.003906 162.128906 C 111.167969 160.441406 111.417969 158.765625 111.746094 157.105469 C 112.078125 155.441406 112.488281 153.800781 112.980469 152.179688 C 113.472656 150.554688 114.042969 148.960938 114.691406 147.394531 C 115.339844 145.832031 116.0625 144.300781 116.863281 142.804688 C 117.664062 141.3125 118.53125 139.859375 119.472656 138.449219 C 120.414062 137.039062 121.425781 135.679688 122.5 134.371094 C 123.574219 133.058594 124.710938 131.804688 125.910156 130.605469 C 127.109375 129.410156 128.363281 128.273438 129.671875 127.195312 C 130.984375 126.121094 132.34375 125.113281 133.753906 124.171875 C 135.160156 123.230469 136.613281 122.359375 138.109375 121.5625 C 139.601562 120.761719 141.132812 120.039062 142.699219 119.390625 C 144.265625 118.742188 145.859375 118.171875 147.480469 117.679688 C 149.101562 117.1875 150.746094 116.773438 152.40625 116.445312 C 154.070312 116.113281 155.742188 115.867188 157.429688 115.699219 C 159.117188 115.53125 160.808594 115.449219 162.503906 115.449219 C 164.199219 115.449219 165.886719 115.53125 167.574219 115.699219 C 169.261719 115.867188 170.9375 116.113281 172.597656 116.445312 C 174.261719 116.773438 175.902344 117.1875 177.523438 117.679688 C 179.148438 118.171875 180.742188 118.742188 182.308594 119.390625 C 183.871094 120.039062 185.402344 120.761719 186.898438 121.5625 C 188.390625 122.359375 189.84375 123.230469 191.253906 124.171875 C 192.664062 125.113281 194.023438 126.121094 195.332031 127.195312 C 196.644531 128.273438 197.898438 129.410156 199.09375 130.605469 C 200.292969 131.804688 201.429688 133.058594 202.507812 134.371094 C 203.582031 135.679688 204.589844 137.039062 205.53125 138.449219 C 206.472656 139.859375 207.34375 141.3125 208.140625 142.804688 C 208.941406 144.300781 209.664062 145.832031 210.3125 147.394531 C 210.960938 148.960938 211.53125 150.554688 212.023438 152.179688 C 212.515625 153.800781 212.929688 155.441406 213.257812 157.105469 C 213.589844 158.765625 213.835938 160.441406 214.003906 162.128906 C 214.167969 163.8125 214.253906 165.503906 214.253906 167.199219 Z M 214.253906 167.199219 " fill-opacity="1" fill-rule="nonzero"/></g><g clip-path="url(#6e9eca90eb)"><path fill="#06b6d4" d="M 123.59375 194.859375 C 161.90625 194.859375 194.304688 153.296875 207.515625 157.085938 C 213.804688 158.863281 216.957031 156.480469 219.75 154.105469 C 223.601562 150.808594 226.75 147.515625 236.519531 155.246094 C 245.769531 162.566406 251.238281 153.546875 257.480469 144.535156 C 262.597656 137.144531 268.234375 129.757812 276.902344 131.359375 C 296.144531 134.921875 302.691406 172.929688 302.691406 172.929688 L 72.644531 172.929688 C 72.644531 172.929688 96.886719 194.859375 123.59375 194.859375 " fill-opacity="1" fill-rule="nonzero"/></g><g clip-path="url(#0d9a0ad0a5)"><path fill="#d8b4fe" d="M 80.6875 178.324219 C 98.722656 190.441406 122.734375 188.660156 138.757812 174.019531 C 139.160156 173.617188 139.621094 173.273438 140.023438 172.929688 L 72.644531 172.929688 L 80.6875 178.324219 M 214.003906 185.558594 C 229.628906 201.117188 253.925781 203.816406 272.535156 192.046875 L 302.691406 172.929688 L 201.082031 172.929688 C 202 173.730469 202.976562 174.59375 203.839844 175.453125 L 214.003906 185.558594 M 140.023438 172.929688 L 201.082031 172.929688 C 183.621094 158.058594 157.714844 157.941406 140.023438 172.929688 " fill-opacity="1" fill-rule="nonzero"/></g><g clip-path="url(#e76f499154)"><path fill="#a855f7" d="M 153.085938 157.660156 C 156.621094 157.660156 160.277344 158.953125 164.03125 162.019531 L 164.203125 162.160156 C 155.539062 163.335938 147.121094 166.917969 140.023438 172.929688 L 130.316406 172.929688 C 137.191406 164.730469 144.824219 157.652344 153.085938 157.660156 M 72.644531 172.929688 C 72.644531 172.929688 89.488281 188.164062 110.5625 193.238281 C 107.21875 195.261719 103.972656 196.109375 100.871094 196.109375 C 84.695312 196.109375 72.644531 172.929688 72.644531 172.929688 " fill-opacity="1" fill-rule="nonzero"/></g><g clip-path="url(#92d0ead14a)"><path fill="#2b6e93" d="M 72.644531 172.929688 L 80.6875 178.324219 C 88.683594 183.695312 97.851562 186.335938 106.976562 186.335938 C 111.554688 186.335938 116.128906 185.667969 120.535156 184.351562 C 117.390625 187.78125 114.308594 190.773438 111.53125 192.621094 C 111.210938 192.835938 110.882812 193.042969 110.5625 193.238281 C 89.488281 188.164062 72.644531 172.929688 72.644531 172.929688 " fill-opacity="1" fill-rule="nonzero"/></g><path fill="#a855f7" d="M 177.324219 172.929688 L 201.082031 172.929688 C 202 173.730469 202.976562 174.59375 203.839844 175.453125 L 214.003906 185.558594 C 216.3125 187.859375 218.8125 189.878906 221.453125 191.613281 C 221.425781 191.625 221.390625 191.636719 221.355469 191.644531 C 217.640625 192.851562 214.222656 193.402344 211.019531 193.402344 C 197.945312 193.402344 188.4375 184.242188 176.75 173.324219 C 176.9375 173.195312 177.132812 173.0625 177.324219 172.929688 " fill-opacity="1" fill-rule="nonzero"/><path fill="#2b6e93" d="M 176.324219 172.929688 L 177.324219 172.929688 C 177.132812 173.0625 176.9375 173.195312 176.75 173.324219 C 176.605469 173.195312 176.46875 173.0625 176.324219 172.929688 " fill-opacity="1" fill-rule="nonzero"/><g clip-path="url(#d1a2bdb887)"><path fill="#a855f7" d="M 283.707031 184.964844 C 275.828125 196.824219 271.347656 213.40625 259.039062 215.011719 C 258.351562 215.101562 257.699219 215.140625 257.070312 215.140625 C 249.503906 215.140625 246.191406 208.972656 242.78125 202.804688 C 242.042969 201.460938 241.300781 200.117188 240.503906 198.839844 C 242.777344 199.171875 245.070312 199.339844 247.367188 199.339844 C 256.050781 199.339844 264.785156 196.949219 272.535156 192.046875 L 283.707031 184.964844 " fill-opacity="1" fill-rule="nonzero"/></g><g clip-path="url(#098556205d)"><path fill="#67e8f9" d="M 164.203125 162.160156 C 168.617188 165.789062 172.578125 169.46875 176.324219 172.929688 L 140.023438 172.929688 C 147.121094 166.917969 155.539062 163.335938 164.203125 162.160156 M 72.644531 172.929688 L 130.316406 172.929688 C 127.195312 176.664062 123.835938 180.75 120.535156 184.351562 C 116.128906 185.667969 111.554688 186.335938 106.976562 186.335938 C 97.851562 186.335938 88.683594 183.695312 80.6875 178.324219 L 72.644531 172.929688 M 176.324219 172.929688 L 201.082031 172.929688 L 176.324219 172.929688 M 201.082031 172.929688 L 302.691406 172.929688 C 293.84375 172.929688 288.21875 178.171875 283.707031 184.964844 L 272.535156 192.046875 C 264.785156 196.949219 256.050781 199.339844 247.367188 199.339844 C 245.070312 199.339844 242.777344 199.171875 240.503906 198.839844 C 237.652344 194.242188 234.167969 190.464844 227.96875 190.464844 C 226.074219 190.464844 223.917969 190.820312 221.453125 191.613281 C 218.8125 189.878906 216.3125 187.859375 214.003906 185.558594 L 203.839844 175.453125 C 202.976562 174.59375 202 173.730469 201.082031 172.929688 " fill-opacity="1" fill-rule="nonzero"/></g><g fill="#06b6d4" fill-opacity="1"><g transform="translate(107.437518, 249.585965)"><g><path d="M 8 -4.3125 C 8.25 -4.289062 8.535156 -4.269531 8.859375 -4.25 C 9.191406 -4.238281 9.585938 -4.234375 10.046875 -4.234375 C 12.691406 -4.234375 14.648438 -4.898438 15.921875 -6.234375 C 17.203125 -7.578125 17.84375 -9.421875 17.84375 -11.765625 C 17.84375 -14.234375 17.226562 -16.097656 16 -17.359375 C 14.78125 -18.628906 12.847656 -19.265625 10.203125 -19.265625 C 9.847656 -19.265625 9.476562 -19.257812 9.09375 -19.25 C 8.707031 -19.238281 8.34375 -19.210938 8 -19.171875 Z M 23.296875 -11.765625 C 23.296875 -9.734375 22.976562 -7.957031 22.34375 -6.4375 C 21.71875 -4.925781 20.820312 -3.671875 19.65625 -2.671875 C 18.488281 -1.679688 17.066406 -0.9375 15.390625 -0.4375 C 13.722656 0.0625 11.847656 0.3125 9.765625 0.3125 C 8.816406 0.3125 7.707031 0.269531 6.4375 0.1875 C 5.175781 0.101562 3.9375 -0.0625 2.71875 -0.3125 L 2.71875 -23.203125 C 3.9375 -23.429688 5.207031 -23.582031 6.53125 -23.65625 C 7.851562 -23.738281 8.988281 -23.78125 9.9375 -23.78125 C 11.945312 -23.78125 13.769531 -23.550781 15.40625 -23.09375 C 17.050781 -22.644531 18.460938 -21.929688 19.640625 -20.953125 C 20.816406 -19.984375 21.71875 -18.738281 22.34375 -17.21875 C 22.976562 -15.707031 23.296875 -13.890625 23.296875 -11.765625 Z M 23.296875 -11.765625 "/></g></g></g><g fill="#06b6d4" fill-opacity="1"><g transform="translate(132.432157, 249.585965)"><g><path d="M 7.421875 0 L 2.375 0 L 2.375 -17.84375 L 7.421875 -17.84375 Z M 7.90625 -23 C 7.90625 -22.070312 7.601562 -21.34375 7 -20.8125 C 6.40625 -20.28125 5.703125 -20.015625 4.890625 -20.015625 C 4.066406 -20.015625 3.351562 -20.28125 2.75 -20.8125 C 2.15625 -21.34375 1.859375 -22.070312 1.859375 -23 C 1.859375 -23.925781 2.15625 -24.65625 2.75 -25.1875 C 3.351562 -25.71875 4.066406 -25.984375 4.890625 -25.984375 C 5.703125 -25.984375 6.40625 -25.71875 7 -25.1875 C 7.601562 -24.65625 7.90625 -23.925781 7.90625 -23 Z M 7.90625 -23 "/></g></g></g><g fill="#06b6d4" fill-opacity="1"><g transform="translate(142.233312, 249.585965)"><g><path d="M 7.5 -3.625 C 8.425781 -3.625 9.082031 -3.710938 9.46875 -3.890625 C 9.851562 -4.078125 10.046875 -4.429688 10.046875 -4.953125 C 10.046875 -5.359375 9.796875 -5.710938 9.296875 -6.015625 C 8.796875 -6.328125 8.035156 -6.675781 7.015625 -7.0625 C 6.222656 -7.351562 5.503906 -7.65625 4.859375 -7.96875 C 4.222656 -8.289062 3.675781 -8.671875 3.21875 -9.109375 C 2.769531 -9.546875 2.421875 -10.066406 2.171875 -10.671875 C 1.921875 -11.285156 1.796875 -12.023438 1.796875 -12.890625 C 1.796875 -14.566406 2.414062 -15.890625 3.65625 -16.859375 C 4.90625 -17.828125 6.613281 -18.3125 8.78125 -18.3125 C 9.863281 -18.3125 10.90625 -18.210938 11.90625 -18.015625 C 12.90625 -17.828125 13.695312 -17.625 14.28125 -17.40625 L 13.40625 -13.46875 C 12.8125 -13.664062 12.171875 -13.84375 11.484375 -14 C 10.796875 -14.164062 10.019531 -14.25 9.15625 -14.25 C 7.570312 -14.25 6.78125 -13.804688 6.78125 -12.921875 C 6.78125 -12.722656 6.8125 -12.539062 6.875 -12.375 C 6.945312 -12.21875 7.082031 -12.066406 7.28125 -11.921875 C 7.488281 -11.773438 7.769531 -11.613281 8.125 -11.4375 C 8.476562 -11.269531 8.925781 -11.085938 9.46875 -10.890625 C 10.570312 -10.484375 11.484375 -10.082031 12.203125 -9.6875 C 12.929688 -9.289062 13.503906 -8.859375 13.921875 -8.390625 C 14.335938 -7.929688 14.628906 -7.414062 14.796875 -6.84375 C 14.972656 -6.28125 15.0625 -5.628906 15.0625 -4.890625 C 15.0625 -3.117188 14.398438 -1.78125 13.078125 -0.875 C 11.753906 0.0195312 9.882812 0.46875 7.46875 0.46875 C 5.882812 0.46875 4.566406 0.332031 3.515625 0.0625 C 2.460938 -0.207031 1.734375 -0.429688 1.328125 -0.609375 L 2.171875 -4.71875 C 3.023438 -4.375 3.90625 -4.101562 4.8125 -3.90625 C 5.71875 -3.71875 6.613281 -3.625 7.5 -3.625 Z M 7.5 -3.625 "/></g></g></g><g fill="#06b6d4" fill-opacity="1"><g transform="translate(158.681617, 249.585965)"><g><path d="M 1.53125 -8.921875 C 1.53125 -10.210938 1.738281 -11.425781 2.15625 -12.5625 C 2.570312 -13.707031 3.175781 -14.703125 3.96875 -15.546875 C 4.757812 -16.398438 5.71875 -17.070312 6.84375 -17.5625 C 7.976562 -18.0625 9.269531 -18.3125 10.71875 -18.3125 C 11.664062 -18.3125 12.535156 -18.226562 13.328125 -18.0625 C 14.117188 -17.894531 14.890625 -17.648438 15.640625 -17.328125 L 14.59375 -13.296875 C 14.113281 -13.472656 13.585938 -13.628906 13.015625 -13.765625 C 12.453125 -13.898438 11.820312 -13.96875 11.125 -13.96875 C 9.632812 -13.96875 8.519531 -13.503906 7.78125 -12.578125 C 7.050781 -11.648438 6.6875 -10.429688 6.6875 -8.921875 C 6.6875 -7.316406 7.03125 -6.070312 7.71875 -5.1875 C 8.40625 -4.300781 9.609375 -3.859375 11.328125 -3.859375 C 11.941406 -3.859375 12.597656 -3.914062 13.296875 -4.03125 C 13.992188 -4.144531 14.640625 -4.328125 15.234375 -4.578125 L 15.9375 -0.4375 C 15.351562 -0.1875 14.617188 0.0234375 13.734375 0.203125 C 12.859375 0.378906 11.890625 0.46875 10.828125 0.46875 C 9.191406 0.46875 7.785156 0.226562 6.609375 -0.25 C 5.429688 -0.738281 4.460938 -1.398438 3.703125 -2.234375 C 2.953125 -3.078125 2.398438 -4.066406 2.046875 -5.203125 C 1.703125 -6.347656 1.53125 -7.585938 1.53125 -8.921875 Z M 1.53125 -8.921875 "/></g></g></g><g fill="#06b6d4" fill-opacity="1"><g transform="translate(175.638636, 249.585965)"><g><path d="M 19.0625 -8.953125 C 19.0625 -7.554688 18.859375 -6.273438 18.453125 -5.109375 C 18.046875 -3.941406 17.457031 -2.941406 16.6875 -2.109375 C 15.914062 -1.285156 14.992188 -0.648438 13.921875 -0.203125 C 12.847656 0.242188 11.644531 0.46875 10.3125 0.46875 C 9 0.46875 7.804688 0.242188 6.734375 -0.203125 C 5.660156 -0.648438 4.738281 -1.285156 3.96875 -2.109375 C 3.195312 -2.941406 2.597656 -3.941406 2.171875 -5.109375 C 1.742188 -6.273438 1.53125 -7.554688 1.53125 -8.953125 C 1.53125 -10.359375 1.75 -11.632812 2.1875 -12.78125 C 2.625 -13.9375 3.234375 -14.921875 4.015625 -15.734375 C 4.796875 -16.554688 5.722656 -17.191406 6.796875 -17.640625 C 7.867188 -18.085938 9.039062 -18.3125 10.3125 -18.3125 C 11.601562 -18.3125 12.785156 -18.085938 13.859375 -17.640625 C 14.929688 -17.191406 15.851562 -16.554688 16.625 -15.734375 C 17.394531 -14.921875 17.992188 -13.9375 18.421875 -12.78125 C 18.847656 -11.632812 19.0625 -10.359375 19.0625 -8.953125 Z M 13.90625 -8.953125 C 13.90625 -10.515625 13.59375 -11.738281 12.96875 -12.625 C 12.351562 -13.519531 11.46875 -13.96875 10.3125 -13.96875 C 9.15625 -13.96875 8.257812 -13.519531 7.625 -12.625 C 7 -11.738281 6.6875 -10.515625 6.6875 -8.953125 C 6.6875 -7.390625 7 -6.148438 7.625 -5.234375 C 8.257812 -4.316406 9.15625 -3.859375 10.3125 -3.859375 C 11.46875 -3.859375 12.351562 -4.316406 12.96875 -5.234375 C 13.59375 -6.148438 13.90625 -7.390625 13.90625 -8.953125 Z M 13.90625 -8.953125 "/></g></g></g><g fill="#06b6d4" fill-opacity="1"><g transform="translate(196.22445, 249.585965)"><g><path d="M 7.21875 0 C 6.070312 -2.257812 4.90625 -4.90625 3.71875 -7.9375 C 2.53125 -10.96875 1.40625 -14.269531 0.34375 -17.84375 L 5.703125 -17.84375 C 5.921875 -16.957031 6.179688 -16 6.484375 -14.96875 C 6.796875 -13.945312 7.113281 -12.910156 7.4375 -11.859375 C 7.769531 -10.804688 8.097656 -9.78125 8.421875 -8.78125 C 8.753906 -7.789062 9.078125 -6.890625 9.390625 -6.078125 C 9.691406 -6.890625 10.007812 -7.789062 10.34375 -8.78125 C 10.6875 -9.78125 11.019531 -10.804688 11.34375 -11.859375 C 11.675781 -12.910156 11.992188 -13.945312 12.296875 -14.96875 C 12.597656 -16 12.863281 -16.957031 13.09375 -17.84375 L 18.3125 -17.84375 C 17.25 -14.269531 16.125 -10.96875 14.9375 -7.9375 C 13.75 -4.90625 12.582031 -2.257812 11.4375 0 Z M 7.21875 0 "/></g></g></g><g fill="#06b6d4" fill-opacity="1"><g transform="translate(214.877163, 249.585965)"><g><path d="M 1.53125 -8.78125 C 1.53125 -10.363281 1.769531 -11.75 2.25 -12.9375 C 2.738281 -14.125 3.378906 -15.113281 4.171875 -15.90625 C 4.960938 -16.695312 5.875 -17.296875 6.90625 -17.703125 C 7.9375 -18.109375 8.992188 -18.3125 10.078125 -18.3125 C 12.609375 -18.3125 14.609375 -17.535156 16.078125 -15.984375 C 17.546875 -14.441406 18.28125 -12.164062 18.28125 -9.15625 C 18.28125 -8.863281 18.269531 -8.539062 18.25 -8.1875 C 18.226562 -7.84375 18.207031 -7.535156 18.1875 -7.265625 L 6.71875 -7.265625 C 6.832031 -6.222656 7.316406 -5.394531 8.171875 -4.78125 C 9.035156 -4.164062 10.191406 -3.859375 11.640625 -3.859375 C 12.566406 -3.859375 13.472656 -3.941406 14.359375 -4.109375 C 15.253906 -4.285156 15.984375 -4.5 16.546875 -4.75 L 17.234375 -0.640625 C 16.960938 -0.503906 16.597656 -0.367188 16.140625 -0.234375 C 15.691406 -0.0976562 15.191406 0.015625 14.640625 0.109375 C 14.085938 0.210938 13.492188 0.296875 12.859375 0.359375 C 12.222656 0.429688 11.585938 0.46875 10.953125 0.46875 C 9.347656 0.46875 7.953125 0.234375 6.765625 -0.234375 C 5.578125 -0.710938 4.59375 -1.363281 3.8125 -2.1875 C 3.03125 -3.007812 2.453125 -3.984375 2.078125 -5.109375 C 1.710938 -6.242188 1.53125 -7.46875 1.53125 -8.78125 Z M 13.40625 -10.71875 C 13.375 -11.144531 13.296875 -11.5625 13.171875 -11.96875 C 13.046875 -12.375 12.851562 -12.734375 12.59375 -13.046875 C 12.34375 -13.367188 12.019531 -13.628906 11.625 -13.828125 C 11.226562 -14.035156 10.734375 -14.140625 10.140625 -14.140625 C 9.578125 -14.140625 9.09375 -14.039062 8.6875 -13.84375 C 8.28125 -13.65625 7.941406 -13.40625 7.671875 -13.09375 C 7.398438 -12.78125 7.1875 -12.410156 7.03125 -11.984375 C 6.882812 -11.566406 6.78125 -11.144531 6.71875 -10.71875 Z M 13.40625 -10.71875 "/></g></g></g><g fill="#06b6d4" fill-opacity="1"><g transform="translate(234.682959, 249.585965)"><g><path d="M 13.125 -13.359375 C 12.675781 -13.472656 12.144531 -13.59375 11.53125 -13.71875 C 10.925781 -13.84375 10.269531 -13.90625 9.5625 -13.90625 C 9.25 -13.90625 8.867188 -13.875 8.421875 -13.8125 C 7.984375 -13.757812 7.648438 -13.703125 7.421875 -13.640625 L 7.421875 0 L 2.375 0 L 2.375 -16.890625 C 3.28125 -17.210938 4.347656 -17.515625 5.578125 -17.796875 C 6.804688 -18.078125 8.179688 -18.21875 9.703125 -18.21875 C 9.972656 -18.21875 10.300781 -18.195312 10.6875 -18.15625 C 11.070312 -18.125 11.457031 -18.078125 11.84375 -18.015625 C 12.226562 -17.960938 12.609375 -17.894531 12.984375 -17.8125 C 13.367188 -17.738281 13.695312 -17.644531 13.96875 -17.53125 Z M 13.125 -13.359375 "/></g></g></g><g fill="#06b6d4" fill-opacity="1"><g transform="translate(248.994676, 249.585965)"><g><path d="M 18.21875 -17.84375 C 17.195312 -14.40625 16.128906 -11.179688 15.015625 -8.171875 C 13.910156 -5.160156 12.703125 -2.242188 11.390625 0.578125 C 10.921875 1.597656 10.445312 2.460938 9.96875 3.171875 C 9.5 3.878906 8.976562 4.460938 8.40625 4.921875 C 7.84375 5.390625 7.203125 5.734375 6.484375 5.953125 C 5.773438 6.171875 4.945312 6.28125 4 6.28125 C 3.207031 6.28125 2.476562 6.203125 1.8125 6.046875 C 1.144531 5.898438 0.597656 5.738281 0.171875 5.5625 L 1.046875 1.53125 C 1.566406 1.707031 2.03125 1.828125 2.4375 1.890625 C 2.84375 1.960938 3.273438 2 3.734375 2 C 4.640625 2 5.332031 1.753906 5.8125 1.265625 C 6.300781 0.785156 6.71875 0.113281 7.0625 -0.75 C 5.90625 -3.007812 4.75 -5.546875 3.59375 -8.359375 C 2.4375 -11.171875 1.351562 -14.332031 0.34375 -17.84375 L 5.703125 -17.84375 C 5.921875 -16.957031 6.179688 -16 6.484375 -14.96875 C 6.796875 -13.945312 7.117188 -12.910156 7.453125 -11.859375 C 7.796875 -10.804688 8.140625 -9.78125 8.484375 -8.78125 C 8.835938 -7.789062 9.175781 -6.890625 9.5 -6.078125 C 9.789062 -6.890625 10.09375 -7.789062 10.40625 -8.78125 C 10.726562 -9.78125 11.039062 -10.804688 11.34375 -11.859375 C 11.65625 -12.910156 11.953125 -13.945312 12.234375 -14.96875 C 12.515625 -16 12.765625 -16.957031 12.984375 -17.84375 Z M 18.21875 -17.84375 "/></g></g></g></svg>