<svg xmlns="http://www.w3.org/2000/svg" xmlns:xlink="http://www.w3.org/1999/xlink" width="500" zoomAndPan="magnify" viewBox="0 0 375 374.999991" height="500" preserveAspectRatio="xMidYMid meet" version="1.0"><defs><clipPath id="b00b608e97"><path d="M 110.753906 137.652344 L 214.253906 137.652344 L 214.253906 195.402344 L 110.753906 195.402344 Z M 110.753906 137.652344 " clip-rule="nonzero"/></clipPath><clipPath id="b34401ff12"><path d="M 72.644531 153.34375 L 302.691406 153.34375 L 302.691406 217.25 L 72.644531 217.25 Z M 72.644531 153.34375 " clip-rule="nonzero"/></clipPath><clipPath id="25f61a07ca"><path d="M 72.644531 183.375 L 302.691406 183.375 L 302.691406 221.84375 L 72.644531 221.84375 Z M 72.644531 183.375 " clip-rule="nonzero"/></clipPath><clipPath id="77c1b80f09"><path d="M 72.644531 179.359375 L 164.261719 179.359375 L 164.261719 218.398438 L 72.644531 218.398438 Z M 72.644531 179.359375 " clip-rule="nonzero"/></clipPath><clipPath id="72be00b029"><path d="M 72.644531 195 L 120.609375 195 L 120.609375 215.527344 L 72.644531 215.527344 Z M 72.644531 195 " clip-rule="nonzero"/></clipPath><clipPath id="19e7caf0f9"><path d="M 240 207 L 284 207 L 284 237.34375 L 240 237.34375 Z M 240 207 " clip-rule="nonzero"/></clipPath><clipPath id="58f862c58d"><path d="M 72.644531 184 L 302.691406 184 L 302.691406 221.84375 L 72.644531 221.84375 Z M 72.644531 184 " clip-rule="nonzero"/></clipPath></defs><g clip-path="url(#b00b608e97)"><path fill="#d8b4fe" d="M 214.253906 189.402344 C 214.253906 191.097656 214.167969 192.789062 214.003906 194.476562 C 213.835938 196.164062 213.589844 197.835938 213.257812 199.5 C 212.929688 201.164062 212.515625 202.804688 212.023438 204.425781 C 211.53125 206.046875 210.960938 207.640625 210.3125 209.207031 C 209.664062 210.773438 208.941406 212.304688 208.140625 213.796875 C 207.34375 215.292969 206.472656 216.746094 205.53125 218.15625 C 204.589844 219.5625 203.582031 220.921875 202.507812 222.234375 C 201.429688 223.542969 200.292969 224.796875 199.09375 225.996094 C 197.898438 227.195312 196.644531 228.332031 195.332031 229.40625 C 194.023438 230.484375 192.664062 231.492188 191.253906 232.433594 C 189.84375 233.375 188.390625 234.246094 186.898438 235.042969 C 185.402344 235.84375 183.871094 236.566406 182.308594 237.214844 C 180.742188 237.863281 179.148438 238.433594 177.523438 238.925781 C 175.902344 239.417969 174.261719 239.828125 172.597656 240.160156 C 170.9375 240.488281 169.261719 240.738281 167.574219 240.90625 C 165.886719 241.070312 164.199219 241.152344 162.503906 241.152344 C 160.808594 241.152344 159.117188 241.070312 157.429688 240.90625 C 155.742188 240.738281 154.070312 240.488281 152.40625 240.160156 C 150.746094 239.828125 149.101562 239.417969 147.480469 238.925781 C 145.859375 238.433594 144.265625 237.863281 142.699219 237.214844 C 141.132812 236.566406 139.601562 235.84375 138.109375 235.042969 C 136.613281 234.246094 135.160156 233.375 133.753906 232.433594 C 132.34375 231.492188 130.984375 230.484375 129.671875 229.40625 C 128.363281 228.332031 127.109375 227.195312 125.910156 225.996094 C 124.710938 224.796875 123.574219 223.542969 122.5 222.234375 C 121.425781 220.921875 120.414062 219.5625 119.472656 218.15625 C 118.53125 216.746094 117.664062 215.292969 116.863281 213.796875 C 116.0625 212.304688 115.339844 210.773438 114.691406 209.207031 C 114.042969 207.640625 113.472656 206.046875 112.980469 204.425781 C 112.488281 202.804688 112.078125 201.164062 111.746094 199.5 C 111.417969 197.835938 111.167969 196.164062 111.003906 194.476562 C 110.835938 192.789062 110.753906 191.097656 110.753906 189.402344 C 110.753906 187.710938 110.835938 186.019531 111.003906 184.332031 C 111.167969 182.644531 111.417969 180.96875 111.746094 179.308594 C 112.078125 177.644531 112.488281 176.003906 112.980469 174.382812 C 113.472656 172.761719 114.042969 171.164062 114.691406 169.601562 C 115.339844 168.035156 116.0625 166.503906 116.863281 165.007812 C 117.664062 163.515625 118.53125 162.0625 119.472656 160.652344 C 120.414062 159.242188 121.425781 157.882812 122.5 156.574219 C 123.574219 155.265625 124.710938 154.007812 125.910156 152.8125 C 127.109375 151.613281 128.363281 150.476562 129.671875 149.402344 C 130.984375 148.324219 132.34375 147.316406 133.753906 146.375 C 135.160156 145.433594 136.613281 144.5625 138.109375 143.765625 C 139.601562 142.964844 141.132812 142.242188 142.699219 141.59375 C 144.265625 140.945312 145.859375 140.375 147.480469 139.882812 C 149.101562 139.390625 150.746094 138.980469 152.40625 138.648438 C 154.070312 138.316406 155.742188 138.070312 157.429688 137.902344 C 159.117188 137.738281 160.808594 137.652344 162.503906 137.652344 C 164.199219 137.652344 165.886719 137.738281 167.574219 137.902344 C 169.261719 138.070312 170.9375 138.316406 172.597656 138.648438 C 174.261719 138.980469 175.902344 139.390625 177.523438 139.882812 C 179.148438 140.375 180.742188 140.945312 182.308594 141.59375 C 183.871094 142.242188 185.402344 142.964844 186.898438 143.765625 C 188.390625 144.5625 189.84375 145.433594 191.253906 146.375 C 192.664062 147.316406 194.023438 148.324219 195.332031 149.402344 C 196.644531 150.476562 197.898438 151.613281 199.09375 152.8125 C 200.292969 154.007812 201.429688 155.265625 202.507812 156.574219 C 203.582031 157.882812 204.589844 159.242188 205.53125 160.652344 C 206.472656 162.0625 207.34375 163.515625 208.140625 165.007812 C 208.941406 166.503906 209.664062 168.035156 210.3125 169.601562 C 210.960938 171.164062 211.53125 172.761719 212.023438 174.382812 C 212.515625 176.003906 212.929688 177.644531 213.257812 179.308594 C 213.589844 180.96875 213.835938 182.644531 214.003906 184.332031 C 214.167969 186.019531 214.253906 187.710938 214.253906 189.402344 Z M 214.253906 189.402344 " fill-opacity="1" fill-rule="nonzero"/></g><g clip-path="url(#b34401ff12)"><path fill="#06b6d4" d="M 123.59375 217.0625 C 161.90625 217.0625 194.304688 175.5 207.515625 179.289062 C 213.804688 181.070312 216.957031 178.6875 219.75 176.308594 C 223.601562 173.011719 226.75 169.71875 236.519531 177.453125 C 245.769531 184.769531 251.238281 175.753906 257.480469 166.738281 C 262.597656 159.347656 268.234375 151.960938 276.902344 153.5625 C 296.144531 157.128906 302.691406 195.132812 302.691406 195.132812 L 72.644531 195.132812 C 72.644531 195.132812 96.886719 217.0625 123.59375 217.0625 " fill-opacity="1" fill-rule="nonzero"/></g><g clip-path="url(#25f61a07ca)"><path fill="#d8b4fe" d="M 80.6875 200.527344 C 98.722656 212.644531 122.734375 210.863281 138.757812 196.222656 C 139.160156 195.820312 139.621094 195.476562 140.023438 195.132812 L 72.644531 195.132812 L 80.6875 200.527344 M 214.003906 207.761719 C 229.628906 223.320312 253.925781 226.019531 272.535156 214.25 L 302.691406 195.132812 L 201.082031 195.132812 C 202 195.933594 202.976562 196.796875 203.839844 197.65625 L 214.003906 207.761719 M 140.023438 195.132812 L 201.082031 195.132812 C 183.621094 180.261719 157.714844 180.148438 140.023438 195.132812 " fill-opacity="1" fill-rule="nonzero"/></g><g clip-path="url(#77c1b80f09)"><path fill="#a855f7" d="M 153.085938 179.863281 C 156.621094 179.863281 160.277344 181.160156 164.03125 184.222656 L 164.203125 184.367188 C 155.539062 185.539062 147.121094 189.121094 140.023438 195.132812 L 130.316406 195.132812 C 137.191406 186.933594 144.824219 179.855469 153.085938 179.863281 M 72.644531 195.132812 C 72.644531 195.132812 89.488281 210.371094 110.5625 215.441406 C 107.21875 217.46875 103.972656 218.316406 100.871094 218.316406 C 84.695312 218.316406 72.644531 195.132812 72.644531 195.132812 " fill-opacity="1" fill-rule="nonzero"/></g><g clip-path="url(#72be00b029)"><path fill="#2b6e93" d="M 72.644531 195.132812 L 80.6875 200.527344 C 88.683594 205.898438 97.851562 208.539062 106.976562 208.539062 C 111.554688 208.539062 116.128906 207.875 120.535156 206.554688 C 117.390625 209.984375 114.308594 212.976562 111.53125 214.824219 C 111.210938 215.039062 110.882812 215.246094 110.5625 215.441406 C 89.488281 210.371094 72.644531 195.132812 72.644531 195.132812 " fill-opacity="1" fill-rule="nonzero"/></g><path fill="#a855f7" d="M 177.324219 195.132812 L 201.082031 195.132812 C 202 195.933594 202.976562 196.796875 203.839844 197.65625 L 214.003906 207.761719 C 216.3125 210.0625 218.8125 212.082031 221.453125 213.816406 C 221.425781 213.828125 221.390625 213.839844 221.355469 213.847656 C 217.640625 215.054688 214.222656 215.605469 211.019531 215.605469 C 197.945312 215.605469 188.4375 206.445312 176.75 195.53125 C 176.9375 195.398438 177.132812 195.265625 177.324219 195.132812 " fill-opacity="1" fill-rule="nonzero"/><path fill="#2b6e93" d="M 176.324219 195.132812 L 177.324219 195.132812 C 177.132812 195.265625 176.9375 195.398438 176.75 195.53125 C 176.605469 195.398438 176.46875 195.265625 176.324219 195.132812 " fill-opacity="1" fill-rule="nonzero"/><g clip-path="url(#19e7caf0f9)"><path fill="#a855f7" d="M 283.707031 207.167969 C 275.828125 219.027344 271.347656 235.609375 259.039062 237.214844 C 258.351562 237.304688 257.699219 237.347656 257.070312 237.347656 C 249.503906 237.347656 246.191406 231.175781 242.78125 225.007812 C 242.042969 223.667969 241.300781 222.324219 240.503906 221.042969 C 242.777344 221.375 245.070312 221.542969 247.367188 221.542969 C 256.050781 221.542969 264.785156 219.152344 272.535156 214.25 L 283.707031 207.167969 " fill-opacity="1" fill-rule="nonzero"/></g><g clip-path="url(#58f862c58d)"><path fill="#67e8f9" d="M 164.203125 184.367188 C 168.617188 187.996094 172.578125 191.675781 176.324219 195.132812 L 140.023438 195.132812 C 147.121094 189.121094 155.539062 185.539062 164.203125 184.367188 M 72.644531 195.132812 L 130.316406 195.132812 C 127.195312 198.867188 123.835938 202.953125 120.535156 206.554688 C 116.128906 207.875 111.554688 208.539062 106.976562 208.539062 C 97.851562 208.539062 88.683594 205.898438 80.6875 200.527344 L 72.644531 195.132812 M 176.324219 195.132812 L 201.082031 195.132812 L 176.324219 195.132812 M 201.082031 195.132812 L 302.691406 195.132812 C 293.84375 195.132812 288.21875 200.375 283.707031 207.167969 L 272.535156 214.25 C 264.785156 219.152344 256.050781 221.542969 247.367188 221.542969 C 245.070312 221.542969 242.777344 221.375 240.503906 221.042969 C 237.652344 216.445312 234.167969 212.671875 227.96875 212.671875 C 226.074219 212.671875 223.917969 213.023438 221.453125 213.816406 C 218.8125 212.082031 216.3125 210.0625 214.003906 207.761719 L 203.839844 197.65625 C 202.976562 196.796875 202 195.933594 201.082031 195.132812 " fill-opacity="1" fill-rule="nonzero"/></g></svg>