<svg xmlns="http://www.w3.org/2000/svg" xmlns:xlink="http://www.w3.org/1999/xlink" width="500" zoomAndPan="magnify" viewBox="0 0 375 374.999991" height="500" preserveAspectRatio="xMidYMid meet" version="1.0"><defs><clipPath id="f85a6ee5df"><path d="M 62.691406 106.4375 L 231.007812 106.4375 L 231.007812 200.355469 L 62.691406 200.355469 Z M 62.691406 106.4375 " clip-rule="nonzero"/></clipPath><clipPath id="f010afec90"><path d="M 0.71875 131.953125 L 374.832031 131.953125 L 374.832031 235.878906 L 0.71875 235.878906 Z M 0.71875 131.953125 " clip-rule="nonzero"/></clipPath><clipPath id="12e8b79e0e"><path d="M 0.71875 181 L 374.832031 181 L 374.832031 243 L 0.71875 243 Z M 0.71875 181 " clip-rule="nonzero"/></clipPath><clipPath id="b9fdecd76b"><path d="M 0.71875 175 L 149.710938 175 L 149.710938 237.746094 L 0.71875 237.746094 Z M 0.71875 175 " clip-rule="nonzero"/></clipPath><clipPath id="6abb32b86f"><path d="M 0.71875 199.46875 L 78.71875 199.46875 L 78.71875 233 L 0.71875 233 Z M 0.71875 199.46875 " clip-rule="nonzero"/></clipPath><clipPath id="952c284f0f"><path d="M 273 219 L 344 219 L 344 268.558594 L 273 268.558594 Z M 273 219 " clip-rule="nonzero"/></clipPath><clipPath id="5e29490d07"><path d="M 0.71875 182 L 374.832031 182 L 374.832031 243 L 0.71875 243 Z M 0.71875 182 " clip-rule="nonzero"/></clipPath></defs><g clip-path="url(#f85a6ee5df)"><path fill="#d8b4fe" d="M 231.007812 190.597656 C 231.007812 191.972656 230.972656 193.351562 230.90625 194.726562 C 230.835938 196.101562 230.738281 197.472656 230.601562 198.84375 C 230.464844 200.214844 230.296875 201.582031 230.097656 202.945312 C 229.894531 204.308594 229.660156 205.664062 229.390625 207.015625 C 229.121094 208.367188 228.820312 209.710938 228.484375 211.046875 C 228.148438 212.382812 227.78125 213.707031 227.382812 215.027344 C 226.984375 216.34375 226.550781 217.652344 226.085938 218.949219 C 225.625 220.246094 225.128906 221.53125 224.601562 222.800781 C 224.074219 224.074219 223.515625 225.332031 222.925781 226.578125 C 222.335938 227.824219 221.71875 229.054688 221.070312 230.269531 C 220.421875 231.484375 219.742188 232.679688 219.035156 233.863281 C 218.324219 235.042969 217.589844 236.207031 216.824219 237.351562 C 216.058594 238.496094 215.265625 239.625 214.445312 240.730469 C 213.625 241.835938 212.777344 242.921875 211.902344 243.984375 C 211.03125 245.050781 210.128906 246.09375 209.207031 247.113281 C 208.28125 248.132812 207.332031 249.132812 206.355469 250.105469 C 205.382812 251.078125 204.386719 252.027344 203.367188 252.953125 C 202.34375 253.878906 201.300781 254.777344 200.238281 255.652344 C 199.171875 256.527344 198.085938 257.371094 196.980469 258.191406 C 195.875 259.011719 194.75 259.804688 193.605469 260.570312 C 192.460938 261.335938 191.296875 262.074219 190.113281 262.78125 C 188.933594 263.488281 187.734375 264.167969 186.519531 264.816406 C 185.304688 265.464844 184.074219 266.085938 182.832031 266.675781 C 181.585938 267.261719 180.328125 267.820312 179.054688 268.347656 C 177.78125 268.875 176.496094 269.371094 175.199219 269.835938 C 173.902344 270.300781 172.597656 270.730469 171.277344 271.132812 C 169.960938 271.53125 168.632812 271.898438 167.296875 272.234375 C 165.960938 272.566406 164.617188 272.867188 163.265625 273.136719 C 161.914062 273.40625 160.558594 273.640625 159.195312 273.84375 C 157.835938 274.046875 156.46875 274.214844 155.097656 274.347656 C 153.726562 274.484375 152.351562 274.585938 150.976562 274.652344 C 149.601562 274.722656 148.226562 274.753906 146.847656 274.753906 C 145.472656 274.753906 144.09375 274.722656 142.71875 274.652344 C 141.34375 274.585938 139.96875 274.484375 138.597656 274.347656 C 137.230469 274.214844 135.863281 274.046875 134.5 273.84375 C 133.136719 273.640625 131.78125 273.40625 130.429688 273.136719 C 129.078125 272.867188 127.734375 272.566406 126.398438 272.234375 C 125.0625 271.898438 123.738281 271.53125 122.417969 271.132812 C 121.101562 270.730469 119.792969 270.300781 118.496094 269.835938 C 117.199219 269.371094 115.914062 268.875 114.640625 268.347656 C 113.371094 267.820312 112.109375 267.261719 110.867188 266.675781 C 109.621094 266.085938 108.390625 265.464844 107.175781 264.816406 C 105.960938 264.167969 104.761719 263.488281 103.582031 262.78125 C 102.402344 262.074219 101.238281 261.335938 100.09375 260.570312 C 98.945312 259.804688 97.820312 259.011719 96.714844 258.191406 C 95.609375 257.371094 94.523438 256.527344 93.457031 255.652344 C 92.394531 254.777344 91.351562 253.878906 90.332031 252.953125 C 89.308594 252.027344 88.3125 251.078125 87.339844 250.105469 C 86.367188 249.132812 85.414062 248.132812 84.492188 247.113281 C 83.566406 246.09375 82.667969 245.050781 81.792969 243.984375 C 80.917969 242.921875 80.070312 241.835938 79.25 240.730469 C 78.429688 239.625 77.636719 238.496094 76.875 237.351562 C 76.109375 236.207031 75.371094 235.042969 74.664062 233.863281 C 73.957031 232.679688 73.277344 231.484375 72.628906 230.269531 C 71.976562 229.054688 71.359375 227.824219 70.769531 226.578125 C 70.179688 225.332031 69.625 224.074219 69.097656 222.800781 C 68.570312 221.53125 68.074219 220.246094 67.609375 218.949219 C 67.144531 217.652344 66.714844 216.34375 66.3125 215.027344 C 65.914062 213.707031 65.546875 212.382812 65.210938 211.046875 C 64.878906 209.710938 64.574219 208.367188 64.308594 207.015625 C 64.039062 205.664062 63.804688 204.308594 63.601562 202.945312 C 63.398438 201.582031 63.230469 200.214844 63.09375 198.84375 C 62.960938 197.472656 62.859375 196.101562 62.792969 194.726562 C 62.722656 193.351562 62.691406 191.972656 62.691406 190.597656 C 62.691406 189.21875 62.722656 187.84375 62.792969 186.46875 C 62.859375 185.089844 62.960938 183.71875 63.09375 182.347656 C 63.230469 180.976562 63.398438 179.609375 63.601562 178.246094 C 63.804688 176.886719 64.039062 175.527344 64.308594 174.179688 C 64.574219 172.828125 64.878906 171.484375 65.210938 170.148438 C 65.546875 168.8125 65.914062 167.484375 66.3125 166.167969 C 66.714844 164.847656 67.144531 163.539062 67.609375 162.246094 C 68.074219 160.949219 68.570312 159.664062 69.097656 158.390625 C 69.625 157.117188 70.179688 155.859375 70.769531 154.613281 C 71.359375 153.367188 71.976562 152.140625 72.628906 150.925781 C 73.277344 149.710938 73.957031 148.511719 74.664062 147.332031 C 75.371094 146.148438 76.109375 144.984375 76.875 143.839844 C 77.636719 142.695312 78.429688 141.570312 79.25 140.464844 C 80.070312 139.355469 80.917969 138.269531 81.792969 137.207031 C 82.667969 136.140625 83.566406 135.097656 84.492188 134.078125 C 85.414062 133.058594 86.367188 132.0625 87.339844 131.085938 C 88.3125 130.113281 89.308594 129.164062 90.332031 128.238281 C 91.351562 127.3125 92.394531 126.414062 93.457031 125.539062 C 94.523438 124.667969 95.609375 123.820312 96.714844 123 C 97.820312 122.179688 98.945312 121.386719 100.09375 120.621094 C 101.238281 119.855469 102.402344 119.121094 103.582031 118.410156 C 104.761719 117.703125 105.960938 117.023438 107.175781 116.375 C 108.390625 115.726562 109.621094 115.105469 110.867188 114.519531 C 112.109375 113.929688 113.371094 113.371094 114.640625 112.84375 C 115.914062 112.316406 117.199219 111.820312 118.496094 111.355469 C 119.792969 110.894531 121.101562 110.460938 122.417969 110.0625 C 123.738281 109.660156 125.0625 109.292969 126.398438 108.960938 C 127.734375 108.625 129.078125 108.324219 130.429688 108.054688 C 131.78125 107.785156 133.136719 107.550781 134.5 107.347656 C 135.863281 107.148438 137.230469 106.976562 138.597656 106.84375 C 139.96875 106.707031 141.34375 106.605469 142.71875 106.539062 C 144.09375 106.472656 145.472656 106.4375 146.847656 106.4375 C 148.226562 106.4375 149.601562 106.472656 150.976562 106.539062 C 152.351562 106.605469 153.726562 106.707031 155.097656 106.84375 C 156.46875 106.976562 157.835938 107.148438 159.195312 107.347656 C 160.558594 107.550781 161.914062 107.785156 163.265625 108.054688 C 164.617188 108.324219 165.960938 108.625 167.296875 108.960938 C 168.632812 109.292969 169.960938 109.660156 171.277344 110.0625 C 172.597656 110.460938 173.902344 110.894531 175.199219 111.355469 C 176.496094 111.820312 177.78125 112.316406 179.054688 112.84375 C 180.328125 113.371094 181.585938 113.929688 182.832031 114.519531 C 184.074219 115.105469 185.304688 115.726562 186.519531 116.375 C 187.734375 117.023438 188.933594 117.703125 190.113281 118.410156 C 191.296875 119.121094 192.460938 119.855469 193.605469 120.621094 C 194.75 121.386719 195.875 122.179688 196.980469 123 C 198.085938 123.820312 199.171875 124.667969 200.238281 125.539062 C 201.300781 126.414062 202.34375 127.3125 203.367188 128.238281 C 204.386719 129.164062 205.382812 130.113281 206.355469 131.085938 C 207.332031 132.0625 208.28125 133.058594 209.207031 134.078125 C 210.128906 135.097656 211.03125 136.140625 211.902344 137.207031 C 212.777344 138.269531 213.625 139.355469 214.445312 140.464844 C 215.265625 141.570312 216.058594 142.695312 216.824219 143.839844 C 217.589844 144.984375 218.324219 146.148438 219.035156 147.332031 C 219.742188 148.511719 220.421875 149.710938 221.070312 150.925781 C 221.71875 152.140625 222.335938 153.367188 222.925781 154.613281 C 223.515625 155.859375 224.074219 157.117188 224.601562 158.390625 C 225.128906 159.664062 225.625 160.949219 226.085938 162.246094 C 226.550781 163.539062 226.984375 164.847656 227.382812 166.167969 C 227.78125 167.484375 228.148438 168.8125 228.484375 170.148438 C 228.820312 171.484375 229.121094 172.828125 229.390625 174.179688 C 229.660156 175.527344 229.894531 176.886719 230.097656 178.246094 C 230.296875 179.609375 230.464844 180.976562 230.601562 182.347656 C 230.738281 183.71875 230.835938 185.089844 230.90625 186.46875 C 230.972656 187.84375 231.007812 189.21875 231.007812 190.597656 Z M 231.007812 190.597656 " fill-opacity="1" fill-rule="nonzero"/></g><g clip-path="url(#f010afec90)"><path fill="#06b6d4" d="M 83.574219 235.578125 C 145.878906 235.578125 198.5625 167.984375 220.046875 174.144531 C 230.277344 177.039062 235.40625 173.167969 239.945312 169.300781 C 246.214844 163.941406 251.332031 158.582031 267.222656 171.160156 C 282.261719 183.058594 291.15625 168.394531 301.304688 153.738281 C 309.628906 141.71875 318.796875 129.703125 332.890625 132.308594 C 364.183594 138.105469 374.832031 199.914062 374.832031 199.914062 L 0.71875 199.914062 C 0.71875 199.914062 40.136719 235.578125 83.574219 235.578125 " fill-opacity="1" fill-rule="nonzero"/></g><g clip-path="url(#12e8b79e0e)"><path fill="#d8b4fe" d="M 13.796875 208.6875 C 43.128906 228.390625 82.171875 225.492188 108.234375 201.683594 C 108.890625 201.03125 109.636719 200.46875 110.289062 199.914062 L 0.71875 199.914062 L 13.796875 208.6875 M 230.605469 220.453125 C 256.011719 245.753906 295.527344 250.144531 325.789062 231.003906 L 374.832031 199.914062 L 209.585938 199.914062 C 211.082031 201.21875 212.667969 202.617188 214.070312 204.019531 L 230.605469 220.453125 M 110.289062 199.914062 L 209.585938 199.914062 C 181.1875 175.726562 139.0625 175.542969 110.289062 199.914062 " fill-opacity="1" fill-rule="nonzero"/></g><g clip-path="url(#b9fdecd76b)"><path fill="#a855f7" d="M 131.53125 175.078125 C 137.285156 175.078125 143.226562 177.1875 149.335938 182.171875 L 149.617188 182.402344 C 135.519531 184.308594 121.835938 190.132812 110.289062 199.914062 L 94.503906 199.914062 C 105.683594 186.578125 118.097656 175.070312 131.53125 175.078125 M 0.71875 199.914062 C 0.71875 199.914062 28.105469 224.691406 62.378906 232.941406 C 56.941406 236.234375 51.664062 237.613281 46.621094 237.613281 C 20.316406 237.613281 0.71875 199.914062 0.71875 199.914062 " fill-opacity="1" fill-rule="nonzero"/></g><g clip-path="url(#6abb32b86f)"><path fill="#2b6e93" d="M 0.71875 199.914062 L 13.796875 208.6875 C 26.800781 217.417969 41.707031 221.714844 56.550781 221.714844 C 63.996094 221.714844 71.429688 220.632812 78.59375 218.488281 C 73.484375 224.0625 68.46875 228.933594 63.957031 231.9375 C 63.433594 232.289062 62.902344 232.625 62.378906 232.941406 C 28.105469 224.691406 0.71875 199.914062 0.71875 199.914062 " fill-opacity="1" fill-rule="nonzero"/></g><path fill="#a855f7" d="M 170.953125 199.914062 L 209.585938 199.914062 C 211.082031 201.21875 212.667969 202.617188 214.070312 204.019531 L 230.605469 220.453125 C 234.359375 224.195312 238.421875 227.476562 242.71875 230.296875 C 242.671875 230.316406 242.617188 230.332031 242.558594 230.347656 C 236.515625 232.3125 230.957031 233.207031 225.746094 233.207031 C 204.484375 233.207031 189.027344 218.3125 170.015625 200.558594 C 170.324219 200.34375 170.644531 200.128906 170.953125 199.914062 " fill-opacity="1" fill-rule="nonzero"/><path fill="#2b6e93" d="M 169.324219 199.914062 L 170.953125 199.914062 C 170.644531 200.128906 170.324219 200.34375 170.015625 200.558594 C 169.785156 200.34375 169.558594 200.128906 169.324219 199.914062 " fill-opacity="1" fill-rule="nonzero"/><g clip-path="url(#952c284f0f)"><path fill="#a855f7" d="M 343.957031 219.484375 C 331.140625 238.773438 323.855469 265.738281 303.839844 268.351562 C 302.722656 268.492188 301.660156 268.5625 300.640625 268.5625 C 288.332031 268.5625 282.945312 258.53125 277.402344 248.496094 C 276.199219 246.316406 274.992188 244.128906 273.695312 242.046875 C 277.394531 242.589844 281.121094 242.863281 284.859375 242.863281 C 298.980469 242.863281 313.1875 238.972656 325.789062 231.003906 L 343.957031 219.484375 " fill-opacity="1" fill-rule="nonzero"/></g><g clip-path="url(#5e29490d07)"><path fill="#67e8f9" d="M 149.617188 182.402344 C 156.789062 188.304688 163.234375 194.289062 169.324219 199.914062 L 110.289062 199.914062 C 121.835938 190.132812 135.519531 184.308594 149.617188 182.402344 M 0.71875 199.914062 L 94.503906 199.914062 C 89.429688 205.988281 83.964844 212.628906 78.59375 218.488281 C 71.429688 220.632812 63.996094 221.714844 56.550781 221.714844 C 41.707031 221.714844 26.800781 217.417969 13.796875 208.6875 L 0.71875 199.914062 M 169.324219 199.914062 L 209.585938 199.914062 L 169.324219 199.914062 M 209.585938 199.914062 L 374.832031 199.914062 C 360.445312 199.914062 351.296875 208.4375 343.957031 219.484375 L 325.789062 231.003906 C 313.1875 238.972656 298.980469 242.863281 284.859375 242.863281 C 281.121094 242.863281 277.394531 242.589844 273.695312 242.046875 C 269.0625 234.570312 263.390625 228.433594 253.3125 228.433594 C 250.230469 228.433594 246.726562 229.007812 242.71875 230.296875 C 238.421875 227.476562 234.359375 224.195312 230.605469 220.453125 L 214.070312 204.019531 C 212.667969 202.617188 211.082031 201.21875 209.585938 199.914062 " fill-opacity="1" fill-rule="nonzero"/></g></svg>